<?xml version="1.0" ?><!DOCTYPE svg  PUBLIC '-//W3C//DTD SVG 1.0//EN'  'http://www.w3.org/TR/2001/REC-SVG-20010904/DTD/svg10.dtd'><svg height="32" style="overflow:visible;enable-background:new 0 0 26 32" viewBox="0 0 26 32" width="26" xml:space="preserve" xmlns="http://www.w3.org/2000/svg" xmlns:xlink="http://www.w3.org/1999/xlink"><g><g id="Android_1_"><g id="Android"><path d="M2,10c-1.1,0-2,0.9-2,2v8        c0,1.1,0.9,2,2,2s2-0.9,2-2v-8C4,10.9,3.1,10,2,10z" id="Hands_1_" style="fill-rule:evenodd;clip-rule:evenodd;fill:#10DD76;"/><path d="M24,10c-1.1,0-2,0.9-2,2v8        c0,1.1,0.9,2,2,2s2-0.9,2-2v-8C26,10.9,25.1,10,24,10z" id="Hands" style="fill-rule:evenodd;clip-rule:evenodd;fill:#10DD76;"/><path d="M5,10v14c0,1.1,0.9,2,2,2h1v4c0,1.1,0.9,2,2,2s2-0.9,2-2v-4h2v4        c0,1.1,0.9,2,2,2s2-0.9,2-2v-4h1c1.1,0,2-0.9,2-2V10H5z" id="Body" style="fill:#10DD76;"/><path d="M21,9c0-2-0.7-3.7-1.9-5.1        l1.8-3.1c0.1-0.2,0.1-0.5-0.2-0.7S20.2,0,20.1,0.3l-1.7,2.9C17,1.8,15.1,1,13,1S9,1.8,7.6,3.1L5.9,0.3C5.8,0,5.5-0.1,5.3,0.1        S4.9,0.5,5.1,0.8l1.8,3.1C5.7,5.3,5,7,5,9H21z" id="Head" style="fill-rule:evenodd;clip-rule:evenodd;fill:#10DD76;"/><circle cx="10" cy="5" id="Eyes_1_" r="1" style="fill-rule:evenodd;clip-rule:evenodd;fill:#F4F4F4;"/><circle cx="16" cy="5" id="Eyes" r="1" style="fill-rule:evenodd;clip-rule:evenodd;fill:#F4F4F4;"/><polygon id="Shadow_1_" points="14,26 18,30 18,26 " style="fill:#0CC15E;"/><polygon id="Shadow" points="8,26 12,30 12,26 " style="fill:#0CC15E;"/></g></g></g></svg>